# PineTree - generated placeholder foliage mesh for the Meadow sample.
o PineTree
v -0.1400 0.0000 -0.1400
v 0.1400 0.0000 -0.1400
v 0.1400 0.0000 0.1400
v -0.1400 0.0000 0.1400
v -0.1400 1.1000 -0.1400
v 0.1400 1.1000 -0.1400
v 0.1400 1.1000 0.1400
v -0.1400 1.1000 0.1400
v 0.0000 3.0000 0.0000
v 1.0500 1.0000 0.0000
v 0.5250 1.0000 0.9093
v -0.5250 1.0000 0.9093
v -1.0500 1.0000 0.0000
v -0.5250 1.0000 -0.9093
v 0.5250 1.0000 -0.9093
vn 0.0000 0.0000 -1.0000
vn 0.0000 0.0000 -1.0000
vn 1.0000 0.0000 0.0000
vn 1.0000 0.0000 0.0000
vn 0.0000 -0.0000 1.0000
vn 0.0000 0.0000 1.0000
vn -1.0000 0.0000 0.0000
vn -1.0000 0.0000 0.0000
vn 0.7884 0.4139 0.4552
vn 0.5824 -0.7401 0.3362
vn 0.0000 0.4139 0.9103
vn 0.0000 -0.7239 0.6899
vn -0.7884 0.4139 0.4552
vn -0.6572 -0.6512 0.3795
vn -0.7884 0.4139 -0.4552
vn -0.7034 -0.5833 -0.4061
vn -0.0000 0.4139 -0.9103
vn -0.0000 -0.6098 -0.7926
vn 0.7884 0.4139 -0.4552
vn 0.6246 -0.6927 -0.3606
f 1//1 5//1 6//1
f 1//2 6//2 2//2
f 2//3 6//3 7//3
f 2//4 7//4 3//4
f 3//5 7//5 8//5
f 3//6 8//6 4//6
f 4//7 8//7 5//7
f 4//8 5//8 1//8
f 10//9 9//9 11//9
f 10//10 11//10 1//10
f 11//11 9//11 12//11
f 11//12 12//12 1//12
f 12//13 9//13 13//13
f 12//14 13//14 1//14
f 13//15 9//15 14//15
f 13//16 14//16 1//16
f 14//17 9//17 15//17
f 14//18 15//18 1//18
f 15//19 9//19 10//19
f 15//20 10//20 1//20
