# Lamp — placeholder geometry, generated. See README.md.
o Lamp
v -0.1100 -0.1100 -0.1100
v 0.1100 -0.1100 -0.1100
v 0.1100 -0.1100 0.1100
v -0.1100 -0.1100 0.1100
v -0.1100 0.1100 -0.1100
v 0.1100 0.1100 -0.1100
v 0.1100 0.1100 0.1100
v -0.1100 0.1100 0.1100
vn 0 -1 0
vn 0 1 0
vn 0 0 -1
vn 1 0 0
vn 0 0 1
vn -1 0 0
vt -0.1100 -0.1100
vt 0.1100 -0.1100
vt 0.1100 0.1100
vt -0.1100 0.1100
vt -0.1100 -0.1100
vt -0.1100 0.1100
vt 0.1100 0.1100
vt 0.1100 -0.1100
vt -0.1100 -0.1100
vt -0.1100 0.1100
vt 0.1100 0.1100
vt 0.1100 -0.1100
vt -0.1100 -0.1100
vt -0.1100 0.1100
vt 0.1100 0.1100
vt 0.1100 -0.1100
vt 0.1100 -0.1100
vt 0.1100 0.1100
vt -0.1100 0.1100
vt -0.1100 -0.1100
vt 0.1100 -0.1100
vt 0.1100 0.1100
vt -0.1100 0.1100
vt -0.1100 -0.1100
f 1/1/1 2/2/1 3/3/1
f 1/1/1 3/3/1 4/4/1
f 5/5/2 8/6/2 7/7/2
f 5/5/2 7/7/2 6/8/2
f 1/9/3 5/10/3 6/11/3
f 1/9/3 6/11/3 2/12/3
f 2/13/4 6/14/4 7/15/4
f 2/13/4 7/15/4 3/16/4
f 3/17/5 7/18/5 8/19/5
f 3/17/5 8/19/5 4/20/5
f 4/21/6 8/22/6 5/23/6
f 4/21/6 5/23/6 1/24/6
