# PlayerTorso — placeholder geometry, generated. See README.md.
o PlayerTorso
v -0.2200 0.0000 -0.1200
v 0.2200 0.0000 -0.1200
v 0.2200 0.0000 0.1200
v -0.2200 0.0000 0.1200
v -0.2200 0.6200 -0.1200
v 0.2200 0.6200 -0.1200
v 0.2200 0.6200 0.1200
v -0.2200 0.6200 0.1200
vn 0 -1 0
vn 0 1 0
vn 0 0 -1
vn 1 0 0
vn 0 0 1
vn -1 0 0
f 1//1 2//1 3//1
f 1//1 3//1 4//1
f 5//2 8//2 7//2
f 5//2 7//2 6//2
f 1//3 5//3 6//3
f 1//3 6//3 2//3
f 2//4 6//4 7//4
f 2//4 7//4 3//4
f 3//5 7//5 8//5
f 3//5 8//5 4//5
f 4//6 8//6 5//6
f 4//6 5//6 1//6
